<svg width="32" height="32" viewBox="0 0 32 32" fill="none" xmlns="http://www.w3.org/2000/svg">
<g clip-path="url(#clip0_142_228)">
<path d="M31.9999 16.1245C31.9999 15.0123 31.9118 13.8941 31.7237 12.8H16.6399V19.1003H25.2777C24.9193 21.1323 23.4463 23.1778 21.7599 24.32L22.0811 28.16L26.8799 28.16C29.9061 25.3104 31.9999 21.1022 31.9999 16.1245Z" fill="#4285F4"/>
<path d="M16.2501 32C20.5751 32 24.2225 30.5978 26.8799 28.1775L21.7599 24.32C20.3222 25.2858 18.4185 25.7338 16.256 25.7338C12.0724 25.7338 8.31267 22.9469 7.03992 19.2H1.91992V23.2785C4.64219 28.6255 10.1869 32 16.2501 32Z" fill="#34A853"/>
<path d="M7.04002 19.2C6.30644 17.2528 6.62644 14.7472 7.36002 12.8L7.68002 8.96L1.92 8.64C-0.563854 13.0702 -0.620946 18.6098 1.86291 23.04L7.04002 19.2Z" fill="#FBBC04"/>
<path d="M16.5588 6.26388C18.8943 6.22899 21.1515 7.07799 22.8429 8.63642L27.5199 4.11812C24.5584 1.43157 20.6278 -0.045454 16.5588 0.00106647C10.365 0.00106647 4.70083 3.29015 1.91992 8.64L7.36135 12.8C8.6555 9.04929 12.2851 6.26388 16.5588 6.26388Z" fill="#EA4335"/>
</g>
<defs>
<clipPath id="clip0_142_228">
<rect width="32" height="32" fill="white"/>
</clipPath>
</defs>
</svg>
