<svg width="32" height="32" viewBox="0 0 32 32" fill="none" xmlns="http://www.w3.org/2000/svg">
<path d="M0 4.48C0 2.00576 2.00576 0 4.48 0H27.52C29.9942 0 32 2.00576 32 4.48V27.52C32 29.9942 29.9942 32 27.52 32H4.48C2.00576 32 0 29.9942 0 27.52V4.48Z" fill="#0077B5"/>
<path d="M11.52 8.64C11.52 10.2306 10.2306 11.52 8.64 11.52C7.04942 11.52 5.76 10.2306 5.76 8.64C5.76 7.04942 7.04942 5.76 8.64 5.76C10.2306 5.76 11.52 7.04942 11.52 8.64Z" fill="#FAFAFA"/>
<path d="M6.4 13.44C6.4 13.0865 6.68654 12.8 7.04 12.8H10.24C10.5935 12.8 10.88 13.0865 10.88 13.44V25.6C10.88 25.9535 10.5935 26.24 10.24 26.24H7.04C6.68654 26.24 6.4 25.9535 6.4 25.6V13.44Z" fill="#FAFAFA"/>
<path d="M13.44 12.8L16.32 12.8C16.6735 12.8 16.96 13.0866 16.96 13.44V14.08C18.24 12.48 20.5867 12.3733 21.76 12.48C25.4178 12.8125 26.0267 16.5333 25.92 18.56L25.92 25.6C25.92 25.9535 25.6335 26.24 25.28 26.24L22.4 26.24C22.0465 26.24 21.76 25.9535 21.76 25.6V18.56C21.6533 17.7067 21.056 16 19.52 16C17.984 16 17.0667 17.92 16.96 18.56V25.6C16.96 25.9535 16.6735 26.24 16.32 26.24L13.44 26.24C13.0865 26.24 12.8 25.9535 12.8 25.6V13.44C12.8 13.0865 13.0865 12.8 13.44 12.8Z" fill="#FAFAFA"/>
</svg>
